<svg width="500" height="500" viewBox="0 0 500 500" fill="none" xmlns="http://www.w3.org/2000/svg">
<path fill-rule="evenodd" clip-rule="evenodd" d="M250 50C139.543 50 50 139.543 50 250C50 360.457 139.543 450 250 450C360.457 450 450 360.457 450 250C450 139.543 360.457 50 250 50ZM12.5 250C12.5 118.832 118.832 12.5 250 12.5C381.168 12.5 487.5 118.832 487.5 250C487.5 381.168 381.168 487.5 250 487.5C118.832 487.5 12.5 381.168 12.5 250Z" fill="black"/>
<rect x="50" y="231.25" width="400" height="37.5" fill="black"/>
<rect x="175" y="175" width="150" height="150" fill="black"/>
</svg>